<svg width="999" height="626" viewBox="0 0 999 626" fill="none" xmlns="http://www.w3.org/2000/svg">
<g id="nexus-logo">
<path id="Vector 7" d="M0 45.2947V570.713L95.1202 135.884C99.6497 122.296 117.768 104.178 144.945 104.178H887.788C887.788 72.4715 860.611 45.2947 833.434 45.2947H452.953C430.306 18.1179 398.599 0 371.422 0H45.2953C18.1181 0 0 18.1179 0 45.2947Z" fill="#1177FE"/>
<path id="Vector 8" d="M9.06357 575.24C4.53789 597.887 27.1817 625.064 54.3589 625.064C31.7112 606.946 27.1817 593.358 31.7112 566.181L117.772 203.824C126.835 181.176 144.953 158.529 181.186 158.529H452.958C493.727 158.529 516.375 176.647 534.489 203.824H928.559C951.211 140.411 924.034 113.234 887.793 113.234H144.953C117.772 113.234 104.188 131.352 99.6542 153.999L9.06357 575.24Z" fill="#1689FE"/>
<g id="Group 284">
<path id="Subtract" d="M462.02 167.593C484.671 167.593 516.377 185.711 525.433 212.887H951.209C991.979 212.888 1010.1 249.123 991.975 285.359H852.552C843.662 271.723 828.278 262.707 810.786 262.707C783.269 262.707 760.961 285.014 760.961 312.531C760.961 340.048 783.269 362.355 810.786 362.355C828.274 362.355 843.655 353.344 852.546 339.713H978.39L964.798 394.066H689.5C680.609 380.435 665.228 371.424 647.741 371.424C620.224 371.424 597.916 393.731 597.915 421.248C597.915 448.765 620.224 471.072 647.741 471.072C665.233 471.072 680.617 462.056 689.507 448.42H951.209L937.624 502.773H752.911C744.021 489.137 728.636 480.121 711.144 480.121C683.627 480.121 661.319 502.427 661.319 529.944C661.319 557.461 683.627 579.768 711.144 579.768C728.632 579.768 744.013 570.757 752.904 557.127H924.036C919.51 593.362 896.859 625.069 869.678 625.069H81.5385C54.3536 625.069 31.7149 597.892 40.7699 561.656L126.834 203.828C135.897 176.652 163.074 167.593 176.662 167.593H462.02Z" fill="#1D9CFE"/>
</g>
</g>
</svg>
