<svg width="999" height="192" viewBox="0 0 999 192" fill="none" xmlns="http://www.w3.org/2000/svg">
<g id="nexus-logotipo">
<path id="Vector 2" d="M51.675 191.663H0V94.7375C0 42.4154 42.4154 0 94.7374 0C147.059 0 189.475 42.4155 189.475 94.7375V191.663H137.8V94.7365C137.8 70.9538 118.52 51.674 94.7374 51.674C70.9547 51.674 51.675 70.9537 51.675 94.7365V191.663Z" fill="#1D9CFE"/>
<path id="Subtract" d="M302.087 3.39791e-09C375.455 -0.000502041 402.375 55.6322 395.038 111.502H265.021C265.021 150.368 314.243 165.826 335.32 133.364H390.146C377.918 167.372 353.463 191.663 302.105 191.663C248.302 191.663 211.619 162.514 206.728 99.3564C206.728 45.9159 233.61 0.000663547 302.087 3.39791e-09ZM299.677 43.2959C278.482 43.2961 264.994 57.481 264.994 77.7451H334.36C334.36 57.4809 320.872 43.2959 299.677 43.2959Z" fill="#1D9CFE"/>
<path id="Vector 18" d="M459.029 191.663H402.698L466.71 94.7357L402.698 0H459.029L494.875 58.2989L535.843 0H592.173L525.601 94.7357L592.173 191.663H535.843L494.875 131.173L459.029 191.663Z" fill="#1D9CFE"/>
<path id="Vector 19" d="M809.267 127.881H881.253C881.265 139.156 900.151 152.211 919.037 146.574C934.977 141.816 931.616 126.374 919.037 124.024C862.379 107.112 824.148 109.431 818.316 67.6495C815.193 45.2738 830.907 0 906.094 0C971.106 0 994.586 33.8248 999 67.6495H931.616C929.383 51.3261 919.027 45.0997 900.141 45.0997C893.846 45.0997 883.288 46.9624 881.255 56.3746C881.27 84.5619 999 67.6286 999 135.291C999 174.761 949.211 191.666 904.569 191.666C846.058 191.666 812.021 169.124 809.267 127.881Z" fill="#1D9CFE"/>
<path id="Vector 21" d="M744.559 0.0057373H796.234V96.9314C796.234 149.254 753.819 191.669 701.497 191.669C649.175 191.669 606.76 149.253 606.76 96.9314V0.0057373H658.434V96.9324C658.434 120.715 677.714 139.995 701.497 139.995C725.28 139.995 744.559 120.715 744.559 96.9324V0.0057373Z" fill="#1D9CFE"/>
</g>
</svg>
